# xmcd
#
# Track frame offsets:
#	150
#	22831
#	49840
#	72135
#	89991
#	116836
#	137089
#	165921
#	193906
#	218483
#	236740
#
# Disc length: 3468 seconds
#
# Revision: 1
# Processed by: cddbd v1.5.2PL0 Copyright (c) Steve Scherf et al.
# Submitted via: EZCDAudioConverter 8.0.2.1
#
DISCID=9a0d8a0b
DTITLE=Khánh Du - Ngày Về
DYEAR=2012
DGENRE=Miscellaneous
TTITLE0=Khánh Du - Riêng một góc trời
TTITLE1=Khánh Du, Thu Minh - Nghìn trùng xa cách
TTITLE2=Khánh Du - Một mai em đi
TTITLE3=Khánh Du - Anh còn nợ em
TTITLE4=Khánh Du, Dương Triệu Vũ - Cây đàn bỏ quên
TTITLE5=Khánh Du - Khúc thụy du
TTITLE6=Khánh Du, Đàm Vĩnh Hưng - Niệm khúc cuối
TTITLE7=Khánh Du - Nha Trang ngày về
TTITLE8=Khánh Du - Lòng mẹ
TTITLE9=Khánh Du - Mùa thu cho em
TTITLE10=Khánh Du - Cho người tình lỡ
EXTD=
EXTT0=
EXTT1=
EXTT2=
EXTT3=
EXTT4=
EXTT5=
EXTT6=
EXTT7=
EXTT8=
EXTT9=
EXTT10=
PLAYORDER=
